<?xml version="1.0" encoding="utf-8"?>
<!-- Generator: Adobe Illustrator 17.0.0, SVG Export Plug-In . SVG Version: 6.00 Build 0)  -->
<!DOCTYPE svg PUBLIC "-//W3C//DTD SVG 1.1//EN" "http://www.w3.org/Graphics/SVG/1.1/DTD/svg11.dtd">
<svg version="1.1" xmlns="http://www.w3.org/2000/svg" xmlns:xlink="http://www.w3.org/1999/xlink" x="0px" y="0px"
	 width="454.247px" height="173.395px" viewBox="0 0 454.247 173.395" enable-background="new 0 0 454.247 173.395"
	 xml:space="preserve">
<g id="Layer_2">
</g>
<g id="Layer_1">
	<g>
		<polygon fill="#1FA09C" points="41.609,173.395 0,79.817 364.753,85.182 402.806,168.516 		"/>
		<polygon fill="#58C2DB" points="47.581,0 0,79.817 364.753,85.182 402.903,19.946 		"/>
		<polygon fill="#33ADC1" points="454.247,99.182 402.903,19.946 364.753,85.182 402.806,168.516 		"/>
		<g>
			<path fill="#FFFFFF" d="M78.071,87.681c-0.071-0.918-0.318-1.713-0.742-2.385c-0.424-0.671-0.99-1.254-1.696-1.749
				c-1.271-1.06-2.827-1.59-4.664-1.59c-1.483,0-2.915,0.265-4.293,0.795s-2.067,1.68-2.067,3.445c0,0.779,0.266,1.378,0.796,1.802
				c0.529,0.424,1.076,0.778,1.643,1.06c0.848,0.354,1.961,0.672,3.339,0.954c1.378,0.283,2.896,0.566,4.559,0.848
				c1.659,0.283,3.392,0.62,5.193,1.007c1.802,0.389,3.586,0.866,5.354,1.431c1.766,0.566,3.444,1.255,5.034,2.067
				c1.591,0.813,2.985,1.839,4.188,3.074c1.201,1.237,2.154,2.687,2.862,4.347c0.705,1.661,1.06,3.622,1.06,5.883
				c0,3.815-0.831,6.979-2.491,9.486c-1.661,2.51-3.815,4.489-6.466,5.937c-2.649,1.449-5.654,2.475-9.01,3.073
				c-3.357,0.6-6.696,0.901-10.018,0.901c-3.251,0-6.483-0.336-9.698-1.007c-3.217-0.671-6.132-1.783-8.745-3.339
				c-2.615-1.554-4.754-3.567-6.413-6.042c-1.661-2.473-2.527-5.476-2.597-9.01H63.23c0.07,1.838,0.918,3.463,2.544,4.876
				c1.201,1.06,3.074,1.59,5.618,1.59c0.706,0,1.466-0.069,2.279-0.212c0.812-0.141,1.572-0.371,2.279-0.689
				c0.705-0.317,1.307-0.758,1.802-1.324c0.493-0.565,0.742-1.236,0.742-2.015c0-0.776-0.143-1.447-0.424-2.014
				c-0.283-0.564-0.849-1.061-1.696-1.484s-2.032-0.812-3.551-1.166c-1.521-0.353-3.481-0.742-5.884-1.166
				c-7.986-1.341-13.727-3.373-17.225-6.095c-3.498-2.72-5.247-6.448-5.247-11.183c0-3.462,0.83-6.324,2.491-8.586
				c1.659-2.261,3.779-4.045,6.36-5.353c2.578-1.307,5.388-2.226,8.427-2.756c3.037-0.53,5.936-0.795,8.691-0.795
				c2.969,0,6.006,0.249,9.116,0.742c3.109,0.495,5.937,1.378,8.48,2.65s4.664,3.039,6.359,5.3c1.696,2.263,2.614,5.159,2.756,8.692
				H78.071z"/>
			<path fill="#FFFFFF" d="M94.393,71.675h20.246v6.042h0.212c0.637-0.848,1.36-1.712,2.174-2.597
				c0.812-0.883,1.818-1.678,3.021-2.385c1.201-0.706,2.685-1.289,4.452-1.749c1.766-0.458,3.922-0.689,6.466-0.689
				c3.886,0,7.277,0.866,10.176,2.597c2.897,1.732,5.3,3.993,7.208,6.784c1.908,2.792,3.339,5.919,4.293,9.381
				c0.954,3.463,1.432,6.927,1.432,10.388c0,3.252-0.354,6.572-1.061,9.965c-0.707,3.392-1.944,6.466-3.71,9.222
				c-1.767,2.756-4.17,5.019-7.208,6.784c-3.039,1.765-6.855,2.649-11.448,2.649c-3.18,0-6.078-0.654-8.691-1.961
				c-2.615-1.307-4.735-3.127-6.36-5.459h-0.212v23.85H94.393V71.675z M114.639,99.235c0,1.627,0.123,3.252,0.371,4.876
				c0.247,1.627,0.724,3.074,1.432,4.347c0.705,1.271,1.643,2.315,2.809,3.127c1.166,0.812,2.703,1.219,4.611,1.219
				c1.907,0,3.444-0.406,4.61-1.219c1.166-0.812,2.102-1.855,2.81-3.127c0.705-1.272,1.183-2.72,1.431-4.347
				c0.247-1.624,0.371-3.249,0.371-4.876c0-1.624-0.124-3.249-0.371-4.876c-0.248-1.625-0.726-3.09-1.431-4.399
				c-0.708-1.307-1.644-2.367-2.81-3.18c-1.166-0.812-2.703-1.219-4.61-1.219c-1.908,0-3.445,0.407-4.611,1.219
				c-1.166,0.813-2.104,1.874-2.809,3.18c-0.708,1.309-1.185,2.774-1.432,4.399C114.762,95.986,114.639,97.611,114.639,99.235z"/>
			<path fill="#FFFFFF" d="M203.998,114.393c0,2.051,0.122,4.171,0.371,6.36c0.246,2.191,0.97,4.17,2.173,5.936h-21.412
				c-0.283-0.776-0.495-1.643-0.636-2.597c-0.143-0.954-0.178-1.818-0.106-2.597h-0.212c-2.263,2.544-4.929,4.276-8.003,5.193
				c-3.074,0.918-6.308,1.378-9.699,1.378c-2.687,0-5.194-0.318-7.526-0.954s-4.382-1.643-6.147-3.021
				c-1.768-1.378-3.163-3.108-4.188-5.194c-1.024-2.083-1.536-4.574-1.536-7.473c0-2.896,0.512-5.316,1.536-7.261
				c1.024-1.943,2.402-3.568,4.135-4.876c1.73-1.308,3.691-2.314,5.883-3.021c2.189-0.705,4.434-1.271,6.73-1.696
				c2.296-0.424,4.559-0.758,6.784-1.007c2.227-0.247,4.222-0.546,5.989-0.901c1.413-0.282,2.72-0.724,3.922-1.325
				c1.201-0.6,1.802-1.784,1.802-3.551c0-1.837-0.726-3.144-2.173-3.922c-1.449-0.776-3.021-1.166-4.717-1.166
				c-1.627,0-2.934,0.177-3.922,0.53c-0.99,0.354-1.785,0.813-2.385,1.378c-0.602,0.566-1.008,1.184-1.22,1.855
				c-0.212,0.672-0.317,1.29-0.317,1.855H149.62c0.141-3.885,1.095-7.013,2.861-9.381c1.766-2.367,3.992-4.187,6.679-5.459
				c2.685-1.272,5.671-2.12,8.956-2.544c3.286-0.424,6.555-0.636,9.806-0.636c6.572,0,11.623,0.62,15.158,1.855
				c3.532,1.237,6.111,2.88,7.737,4.929c1.625,2.05,2.561,4.364,2.81,6.943c0.246,2.581,0.371,5.177,0.371,7.791V114.393z
				 M183.857,101.991c-1.271,0.637-2.615,1.15-4.027,1.537c-1.415,0.39-2.827,0.761-4.24,1.113c-2.332,0.566-4.1,1.237-5.3,2.014
				c-1.203,0.779-1.803,2.086-1.803,3.923c0,1.271,0.618,2.438,1.855,3.498c1.235,1.06,2.809,1.59,4.717,1.59
				c2.401,0,4.434-0.706,6.095-2.12c1.66-1.413,2.561-3.567,2.703-6.466V101.991z"/>
			<path fill="#FFFFFF" d="M237.917,92.557c-0.212-2.332-0.991-4.063-2.332-5.194c-1.344-1.201-3.11-1.802-5.301-1.802
				c-2.05,0-3.675,0.407-4.876,1.219c-1.202,0.813-2.119,1.855-2.756,3.127c-0.636,1.272-1.06,2.722-1.271,4.346
				c-0.212,1.626-0.318,3.287-0.318,4.982c0,1.696,0.104,3.357,0.316,4.982c0.21,1.626,0.631,3.074,1.264,4.346
				c0.633,1.272,1.545,2.298,2.739,3.074c1.192,0.778,2.81,1.166,4.847,1.166c2.247,0,4.109-0.795,5.583-2.385
				s2.317-3.48,2.529-5.671h20.034c-0.494,3.746-1.57,7.066-3.229,9.964c-1.658,2.898-3.738,5.336-6.242,7.313
				c-2.504,1.979-5.396,3.481-8.676,4.505c-3.281,1.023-6.756,1.537-10.423,1.537c-4.162,0-8.041-0.688-11.638-2.066
				c-3.598-1.378-6.738-3.321-9.418-5.83c-2.68-2.508-4.797-5.528-6.349-9.063c-1.552-3.532-2.327-7.489-2.327-11.872
				c0-4.31,0.777-8.25,2.332-11.819c1.554-3.567,3.674-6.625,6.36-9.169c2.685-2.544,5.83-4.505,9.434-5.883
				c3.604-1.378,7.49-2.067,11.66-2.067c3.604,0,7.031,0.442,10.282,1.325c3.25,0.884,6.13,2.244,8.639,4.081
				c2.508,1.838,4.559,4.152,6.148,6.943c1.59,2.792,2.561,6.095,2.915,9.911H237.917z"/>
			<path fill="#FFFFFF" d="M275.863,65.739h-20.987V51.005h20.987V65.739z M254.876,71.675h20.987v55.014h-20.987V71.675z"/>
			<path fill="#FFFFFF" d="M332.36,126.689h-20.246v-6.042h-0.212c-0.636,0.849-1.361,1.715-2.173,2.598
				c-0.813,0.884-1.82,1.679-3.021,2.385c-1.202,0.707-2.686,1.288-4.451,1.749c-1.768,0.458-3.922,0.688-6.467,0.688
				c-3.887,0-7.278-0.866-10.176-2.597c-2.898-1.73-5.3-3.991-7.208-6.784c-1.908-2.791-3.339-5.918-4.293-9.381
				c-0.954-3.462-1.431-6.925-1.431-10.388c0-3.25,0.353-6.573,1.06-9.964c0.706-3.392,1.943-6.466,3.71-9.222
				c1.766-2.756,4.169-5.017,7.208-6.784c3.038-1.765,6.854-2.65,11.448-2.65c3.18,0,6.077,0.654,8.692,1.961
				c2.613,1.309,4.733,3.127,6.359,5.459h0.212V51.005h20.988V126.689z M312.114,99.129c0-1.625-0.124-3.25-0.371-4.876
				c-0.248-1.625-0.726-3.074-1.431-4.346c-0.707-1.272-1.643-2.313-2.809-3.127c-1.166-0.812-2.703-1.219-4.611-1.219
				s-3.445,0.407-4.611,1.219c-1.166,0.813-2.104,1.855-2.809,3.127c-0.707,1.272-1.185,2.722-1.432,4.346
				c-0.248,1.626-0.37,3.251-0.37,4.876c0,1.626,0.122,3.251,0.37,4.876c0.247,1.626,0.725,3.092,1.432,4.398
				c0.705,1.309,1.643,2.369,2.809,3.181c1.166,0.812,2.703,1.219,4.611,1.219s3.445-0.406,4.611-1.219
				c1.166-0.812,2.102-1.872,2.809-3.181c0.705-1.307,1.183-2.772,1.431-4.398C311.99,102.38,312.114,100.755,312.114,99.129z"/>
			<path fill="#FFFFFF" d="M388.751,99.129c0,3.815-0.601,7.473-1.802,10.971c-1.202,3.498-3.021,6.572-5.459,9.222
				c-2.438,2.65-5.549,4.771-9.328,6.36c-3.781,1.59-8.251,2.385-13.409,2.385c-5.159,0-9.629-0.795-13.408-2.385
				c-3.781-1.59-6.891-3.71-9.328-6.36c-2.438-2.649-4.259-5.724-5.459-9.222c-1.203-3.498-1.803-7.155-1.803-10.971
				c0-3.816,0.6-7.455,1.803-10.918c1.2-3.461,3.021-6.519,5.459-9.169c2.438-2.65,5.547-4.77,9.328-6.36
				c3.779-1.59,8.249-2.385,13.408-2.385c5.158,0,9.628,0.795,13.409,2.385c3.779,1.59,6.891,3.71,9.328,6.36
				c2.438,2.65,4.257,5.708,5.459,9.169C388.15,91.674,388.751,95.313,388.751,99.129z M367.763,99.129
				c0-1.484-0.09-3.021-0.266-4.611c-0.177-1.59-0.583-3.038-1.219-4.346c-0.636-1.307-1.556-2.401-2.756-3.286
				c-1.202-0.882-2.793-1.325-4.771-1.325c-1.979,0-3.569,0.442-4.77,1.325c-1.202,0.885-2.12,1.979-2.756,3.286
				c-0.637,1.309-1.044,2.756-1.22,4.346c-0.177,1.59-0.265,3.127-0.265,4.611c0,1.483,0.088,3.021,0.265,4.61
				c0.176,1.591,0.583,3.058,1.22,4.399c0.636,1.344,1.554,2.456,2.756,3.339c1.2,0.885,2.791,1.325,4.77,1.325
				c1.978,0,3.568-0.44,4.771-1.325c1.2-0.883,2.12-1.995,2.756-3.339c0.636-1.342,1.042-2.809,1.219-4.399
				C367.673,102.15,367.763,100.613,367.763,99.129z"/>
		</g>
	</g>
</g>
</svg>
